<svg xmlns="http://www.w3.org/2000/svg" viewBox="0 0 24 24" id="coding">
  <g>
    <rect width="18" height="22" x="2" y="2" fill="#6dedd4"></rect>
    <polygon fill="#61c5fa" points="22 4 22 22 4 22 4 0 18 0 22 4"></polygon>
    <polygon fill="#468ff1" points="22 4 18 4 18 0 22 4"></polygon>
    <polygon fill="#fff" points="8.29 9.71 5.59 7 8.29 4.29 9.71 5.71 8.41 7 9.71 8.29 8.29 9.71"></polygon>
    <polygon fill="#fff" points="15.71 9.71 14.29 8.29 15.59 7 14.29 5.71 15.71 4.29 18.41 7 15.71 9.71"></polygon>
    <rect width="8.25" height="2" x="7.88" y="6" fill="#fff" transform="rotate(-75.96 11.999 6.997)"></rect>
    <rect width="2" height="2" x="6" y="14" fill="#468ff1"></rect>
    <rect width="10" height="2" x="10" y="14" fill="#468ff1"></rect>
    <rect width="2" height="2" x="6" y="18" fill="#468ff1"></rect>
    <rect width="10" height="2" x="10" y="18" fill="#468ff1"></rect>
  </g>
</svg>
